<svg width="35" height="35" viewBox="0 0 35 35" fill="none" xmlns="http://www.w3.org/2000/svg">
<path d="M17.5 21.875C19.9162 21.875 21.875 19.9162 21.875 17.5C21.875 15.0838 19.9162 13.125 17.5 13.125C15.0838 13.125 13.125 15.0838 13.125 17.5C13.125 19.9162 15.0838 21.875 17.5 21.875Z" fill="#5E8FD8"/>
<path d="M26.9896 9.65098C24.001 7.60156 20.8024 6.5625 17.4836 6.5625C14.497 6.5625 11.5855 7.45117 8.82998 9.19297C6.05117 10.9532 3.32705 14.1504 1.09375 17.5C2.8998 20.5078 5.37031 23.6004 7.94336 25.3736C10.8951 27.4066 14.1046 28.4375 17.4836 28.4375C20.8332 28.4375 24.0358 27.4073 27.0061 25.3757C29.6208 23.584 32.1091 20.4955 33.9062 17.5C32.1029 14.5312 29.6064 11.4461 26.9896 9.65098ZM17.5 24.0625C16.2021 24.0625 14.9333 23.6776 13.8541 22.9565C12.7749 22.2354 11.9337 21.2105 11.437 20.0114C10.9403 18.8122 10.8104 17.4927 11.0636 16.2197C11.3168 14.9467 11.9418 13.7774 12.8596 12.8596C13.7774 11.9418 14.9467 11.3168 16.2197 11.0636C17.4927 10.8104 18.8122 10.9403 20.0114 11.437C21.2105 11.9337 22.2354 12.7749 22.9565 13.8541C23.6776 14.9333 24.0625 16.2021 24.0625 17.5C24.0605 19.2399 23.3685 20.9079 22.1382 22.1382C20.9079 23.3685 19.2399 24.0605 17.5 24.0625Z" fill="#5E8FD8"/>
</svg>
