<svg width="95" height="95" viewBox="0 0 95 95" fill="none" xmlns="http://www.w3.org/2000/svg">
<g filter="url(#filter0_d_94_57)">
<circle cx="45.5" cy="45.5" r="37.5" fill="url(#paint0_linear_94_57)"/>
<circle cx="45.5" cy="45.5" r="36" stroke="#97A7E7" stroke-width="3"/>
</g>
<g clip-path="url(#clip0_94_57)">
<path d="M45.6655 45.5C51.1483 45.5 55.5919 41.0564 55.5919 35.5736C55.5919 30.0907 51.1483 25.6471 45.6655 25.6471C40.1826 25.6471 35.739 30.0907 35.739 35.5736C35.739 41.0564 40.1826 45.5 45.6655 45.5ZM53.0948 48.0282L49.3879 62.8714L46.9063 52.3245L49.3879 47.9817H41.943L44.4246 52.3245L41.943 62.8714L38.2361 48.0282C32.7068 48.2919 28.2941 52.8131 28.2941 58.4044V61.6306C28.2941 63.6856 29.9615 65.353 32.0166 65.353H59.3144C61.3694 65.353 63.0368 63.6856 63.0368 61.6306V58.4044C63.0368 52.8131 58.6241 48.2919 53.0948 48.0282Z" fill="#41508C"/>
</g>
<defs>
<filter id="filter0_d_94_57" x="0" y="0" width="95" height="95" filterUnits="userSpaceOnUse" color-interpolation-filters="sRGB">
<feFlood flood-opacity="0" result="BackgroundImageFix"/>
<feColorMatrix in="SourceAlpha" type="matrix" values="0 0 0 0 0 0 0 0 0 0 0 0 0 0 0 0 0 0 127 0" result="hardAlpha"/>
<feMorphology radius="2" operator="dilate" in="SourceAlpha" result="effect1_dropShadow_94_57"/>
<feOffset dx="2" dy="2"/>
<feGaussianBlur stdDeviation="4"/>
<feComposite in2="hardAlpha" operator="out"/>
<feColorMatrix type="matrix" values="0 0 0 0 0.592157 0 0 0 0 0.654902 0 0 0 0 0.905882 0 0 0 0.35 0"/>
<feBlend mode="normal" in2="BackgroundImageFix" result="effect1_dropShadow_94_57"/>
<feBlend mode="normal" in="SourceGraphic" in2="effect1_dropShadow_94_57" result="shape"/>
</filter>
<linearGradient id="paint0_linear_94_57" x1="45.5" y1="8" x2="45.5" y2="83" gradientUnits="userSpaceOnUse">
<stop stop-color="#EEF3FF"/>
<stop offset="1" stop-color="#D7E3FF"/>
</linearGradient>
<clipPath id="clip0_94_57">
<rect width="34.7426" height="39.7059" fill="white" transform="translate(28.2941 25.6471)"/>
</clipPath>
</defs>
</svg>
