<svg width="95" height="95" viewBox="0 0 95 95" fill="none" xmlns="http://www.w3.org/2000/svg">
<g filter="url(#filter0_d_94_55)">
<circle cx="45.5" cy="45.5" r="37.5" fill="url(#paint0_linear_94_55)"/>
<circle cx="45.5" cy="45.5" r="36" stroke="#97A7E7" stroke-width="3"/>
</g>
<path d="M47.1637 66.0382L47.143 66.042L47.0099 66.11L46.9724 66.1178L46.9461 66.11L46.813 66.042C46.793 66.0356 46.778 66.0388 46.768 66.0517L46.7605 66.0712L46.7286 66.9021L46.738 66.941L46.7568 66.9662L46.9518 67.1099L46.9799 67.1177L47.0024 67.1099L47.1974 66.9662L47.2199 66.9352L47.2274 66.9021L47.1955 66.0731C47.1905 66.0524 47.1799 66.0407 47.1637 66.0382ZM47.6605 65.8188L47.6362 65.8226L47.2893 66.0032L47.2705 66.0226L47.2649 66.044L47.2986 66.8788L47.308 66.9021L47.323 66.9157L47.6999 67.0963C47.7236 67.1028 47.7418 67.0976 47.7543 67.0808L47.7618 67.0536L47.698 65.8615C47.6918 65.8382 47.6793 65.8239 47.6605 65.8188ZM46.3199 65.8226C46.3116 65.8175 46.3018 65.8158 46.2923 65.8179C46.2829 65.8201 46.2746 65.826 46.2693 65.8343L46.258 65.8615L46.1943 67.0536C46.1955 67.0769 46.2062 67.0924 46.2262 67.1002L46.2543 67.0963L46.6311 66.9157L46.6499 66.9002L46.6574 66.8788L46.6893 66.044L46.6836 66.0207L46.6649 66.0013L46.3199 65.8226Z" fill="#41508C"/>
<path d="M53.0735 48.9412C55.442 48.9414 57.719 49.907 59.4297 51.6368C61.1404 53.3667 62.1527 55.7271 62.2555 58.2259L62.2647 58.6471V60.5883C62.265 61.5677 61.9147 62.5111 61.284 63.2293C60.6533 63.9475 59.7889 64.3875 58.864 64.4609L58.5882 64.4706H32.8529C31.9254 64.4709 31.032 64.101 30.3519 63.435C29.6718 62.769 29.2552 61.8562 29.1856 60.8794L29.1765 60.5883V58.6471C29.1766 56.146 30.0911 53.7414 31.7291 51.9349C33.3672 50.1284 35.6025 49.0595 37.9687 48.9509L38.3676 48.9412H53.0735ZM45.7206 25.6471C48.1582 25.6471 50.496 26.6697 52.2197 28.4899C53.9434 30.3101 54.9117 32.7788 54.9117 35.353C54.9117 37.9271 53.9434 40.3959 52.2197 42.2161C50.496 44.0363 48.1582 45.0589 45.7206 45.0589C43.2829 45.0589 40.9451 44.0363 39.2214 42.2161C37.4977 40.3959 36.5294 37.9271 36.5294 35.353C36.5294 32.7788 37.4977 30.3101 39.2214 28.4899C40.9451 26.6697 43.2829 25.6471 45.7206 25.6471Z" fill="#41508C"/>
<defs>
<filter id="filter0_d_94_55" x="0" y="0" width="95" height="95" filterUnits="userSpaceOnUse" color-interpolation-filters="sRGB">
<feFlood flood-opacity="0" result="BackgroundImageFix"/>
<feColorMatrix in="SourceAlpha" type="matrix" values="0 0 0 0 0 0 0 0 0 0 0 0 0 0 0 0 0 0 127 0" result="hardAlpha"/>
<feMorphology radius="2" operator="dilate" in="SourceAlpha" result="effect1_dropShadow_94_55"/>
<feOffset dx="2" dy="2"/>
<feGaussianBlur stdDeviation="4"/>
<feComposite in2="hardAlpha" operator="out"/>
<feColorMatrix type="matrix" values="0 0 0 0 0.592157 0 0 0 0 0.654902 0 0 0 0 0.905882 0 0 0 0.35 0"/>
<feBlend mode="normal" in2="BackgroundImageFix" result="effect1_dropShadow_94_55"/>
<feBlend mode="normal" in="SourceGraphic" in2="effect1_dropShadow_94_55" result="shape"/>
</filter>
<linearGradient id="paint0_linear_94_55" x1="45.5" y1="8" x2="45.5" y2="83" gradientUnits="userSpaceOnUse">
<stop stop-color="#EEF3FF"/>
<stop offset="1" stop-color="#D7E3FF"/>
</linearGradient>
</defs>
</svg>
