<svg width="33" height="37" viewBox="0 0 33 37" fill="none" xmlns="http://www.w3.org/2000/svg">
<path d="M28.1 13L26.476 28.3963C26.2305 30.7302 26.1087 31.8962 25.548 32.778C25.0563 33.5542 24.3331 34.175 23.4697 34.5618C22.4895 35 21.256 35 18.7813 35H14.2187C11.7459 35 10.5105 35 9.53033 34.56C8.66623 34.1734 7.94232 33.5527 7.45007 32.7762C6.89327 31.8962 6.76953 30.7302 6.52207 28.3963L4.9 13M19.4 24.9167V15.75M13.6 24.9167V15.75M2 8.41667H10.9223M10.9223 8.41667L11.6686 3.518C11.8851 2.627 12.6662 2 13.5633 2H19.4367C20.3338 2 21.1129 2.627 21.3314 3.518L22.0777 8.41667M10.9223 8.41667H22.0777M22.0777 8.41667H31" stroke="#D85E5E" stroke-width="3" stroke-linecap="round" stroke-linejoin="round"/>
</svg>
