<svg width="30" height="36" viewBox="0 0 30 36" fill="none" xmlns="http://www.w3.org/2000/svg">
<path d="M18.7252 30.25C20.1669 30.25 20.9286 32.042 19.9669 33.169C19.3417 33.9023 18.5761 34.489 17.7203 34.8907C16.8645 35.2923 15.9376 35.4999 15.0002 35.5C14.0628 35.4999 13.136 35.2923 12.2802 34.8907C11.4243 34.489 10.6588 33.9023 10.0336 33.169C9.11357 32.091 9.77024 30.4058 11.0902 30.2622L11.2736 30.2517L18.7252 30.25ZM15.0002 0.5C17.2636 0.5 19.1769 2.08025 19.7919 4.24675L19.8686 4.546L19.8819 4.62125C21.7195 5.70925 23.2853 7.23901 24.4511 9.08514C25.6169 10.9313 26.3494 13.0412 26.5886 15.242L26.6352 15.7443L26.6669 16.25V21.3792L26.7019 21.6173C26.9301 22.9067 27.6097 24.0597 28.6069 24.8495L28.8852 25.0543L29.1552 25.2275C30.5886 26.0797 30.0886 28.318 28.5269 28.4895L28.3336 28.5H1.6669C-0.046429 28.5 -0.644762 26.113 0.845238 25.2275C1.48029 24.8501 2.02898 24.3314 2.4528 23.7077C2.87663 23.0841 3.1653 22.3705 3.29857 21.6173L3.33357 21.367L3.33524 16.1695C3.43686 13.8838 4.0705 11.6591 5.18071 9.69007C6.29092 7.72107 7.84385 6.06781 9.70357 4.875L10.1169 4.6195L10.1336 4.54425C10.3687 3.49745 10.9043 2.55172 11.668 1.83498C12.4317 1.11824 13.3866 0.665062 14.4036 0.53675L14.7069 0.507L15.0002 0.5Z" fill="#616FEF"/>
</svg>
