<svg width="39" height="35" viewBox="0 0 39 35" fill="none" xmlns="http://www.w3.org/2000/svg">
<path d="M24.75 3.64911L37.3144 24.576C39.12 27.5816 38.2331 31.536 35.3325 33.4072C34.3596 34.0389 33.2244 34.3749 32.0644 34.3747H6.93375C3.51938 34.3747 0.75 31.506 0.75 27.9641C0.75 26.766 1.07438 25.5941 1.68375 24.576L14.25 3.64911C16.0538 0.643484 19.8675 -0.277141 22.7681 1.59411C23.5706 2.11161 24.2494 2.81473 24.75 3.64911ZM19.5 26.8747C19.9973 26.8747 20.4742 26.6772 20.8258 26.3256C21.1775 25.9739 21.375 25.497 21.375 24.9997C21.375 24.5025 21.1775 24.0255 20.8258 23.6739C20.4742 23.3223 19.9973 23.1247 19.5 23.1247C19.0027 23.1247 18.5258 23.3223 18.1742 23.6739C17.8225 24.0255 17.625 24.5025 17.625 24.9997C17.625 25.497 17.8225 25.9739 18.1742 26.3256C18.5258 26.6772 19.0027 26.8747 19.5 26.8747ZM19.5 9.99973C19.0027 9.99973 18.5258 10.1973 18.1742 10.5489C17.8225 10.9005 17.625 11.3775 17.625 11.8747V19.3747C17.625 19.872 17.8225 20.3489 18.1742 20.7006C18.5258 21.0522 19.0027 21.2497 19.5 21.2497C19.9973 21.2497 20.4742 21.0522 20.8258 20.7006C21.1775 20.3489 21.375 19.872 21.375 19.3747V11.8747C21.375 11.3775 21.1775 10.9005 20.8258 10.5489C20.4742 10.1973 19.9973 9.99973 19.5 9.99973Z" fill="#81859E"/>
</svg>
