<svg width="42" height="42" viewBox="0 0 42 42" fill="none" xmlns="http://www.w3.org/2000/svg">
<g clip-path="url(#clip0_443_219)">
<path fill-rule="evenodd" clip-rule="evenodd" d="M1.05966 2.10015C0.920961 2.09887 0.783384 2.12509 0.654875 2.17728C0.526366 2.22948 0.409472 2.30662 0.310945 2.40425C0.212418 2.50188 0.134211 2.61806 0.0808404 2.74608C0.0274699 2.87411 -5.86916e-06 3.01144 9.40395e-10 3.15015L9.40395e-10 32.6719C3.35794e-05 32.8721 0.0572562 33.068 0.164928 33.2367C0.2726 33.4054 0.426236 33.5398 0.60774 33.6241L13.9075 39.8023C14.0491 39.8681 14.2036 39.9016 14.3598 39.9001C14.5096 39.899 14.6574 39.8657 14.7932 39.8027L20.2784 37.2537C20.3704 36.394 20.5208 35.5397 20.7614 34.714L14.9717 37.4041L14.8168 10.2696L26.8603 4.67475L26.9249 15.9509C27.3172 15.6367 27.7374 15.359 28.1803 15.1214L28.1194 4.52607L39.9 9.99825V22.0816C39.9021 22.1838 39.9021 22.2861 39.9 22.3882V29.9037C40.5161 30.3699 41.0731 30.9113 41.5338 31.5363C41.7018 31.761 41.8555 31.9932 42 32.2301V9.32877C42 9.12857 41.9429 8.93254 41.8352 8.76377C41.7275 8.595 41.5738 8.46053 41.3923 8.37621L28.0925 2.19801C27.9508 2.13209 27.7961 2.09865 27.6398 2.10015C27.4903 2.10146 27.3428 2.13468 27.2072 2.19759L14.3497 8.1704L1.49226 2.19801C1.35667 2.13495 1.20918 2.10159 1.05966 2.10015ZM2.1 4.79571L13.5555 10.1171L13.7113 37.3961L2.1 32.0008V4.79571Z" fill="#81859E"/>
<path d="M31.9198 15.8628C28.4401 15.8628 25.6198 18.6835 25.6198 22.1628C25.6198 25.6421 28.4401 28.4628 31.9198 28.4628C35.3987 28.4628 38.2198 25.6421 38.2198 22.1628C38.2198 18.6835 35.3987 15.8628 31.9198 15.8628ZM31.9198 29.3965C24.9604 29.3965 21.8398 32.5175 21.8398 39.4765V40.3165C21.8713 41.9713 22.603 42.02 24.1498 41.9965H39.6898C41.6617 41.9948 42.0133 41.9986 41.9998 40.3165V39.4765C41.9998 32.5175 38.8784 29.3965 31.9198 29.3965Z" fill="#81859E"/>
</g>
<defs>
<clipPath id="clip0_443_219">
<rect width="42" height="42" fill="white"/>
</clipPath>
</defs>
</svg>
