<svg width="40" height="40" viewBox="0 0 40 40" fill="none" xmlns="http://www.w3.org/2000/svg">
<path d="M13.3333 6.66683C13.3333 7.55088 12.9821 8.39873 12.357 9.02385C11.7319 9.64897 10.8841 10.0002 10 10.0002C9.11594 10.0002 8.2681 9.64897 7.64298 9.02385C7.01786 8.39873 6.66667 7.55088 6.66667 6.66683C6.66667 5.78277 7.01786 4.93493 7.64298 4.30981C8.2681 3.68469 9.11594 3.3335 10 3.3335C10.8841 3.3335 11.7319 3.68469 12.357 4.30981C12.9821 4.93493 13.3333 5.78277 13.3333 6.66683ZM8.33333 26.6668V36.6668H5V16.6668C4.99985 15.6809 5.29117 14.717 5.83734 13.8962C6.38351 13.0754 7.16015 12.4344 8.06961 12.0537C8.97908 11.6731 9.98078 11.5698 10.9488 11.7569C11.9168 11.944 12.8079 12.4131 13.51 13.1052L17.4667 16.8435L21.3217 12.9885L23.6783 15.3452L17.5333 21.4902L15 19.1002V36.6668H11.6667V26.6668H8.33333ZM16.6667 8.3335H31.6667V23.3335H16.6667V26.6668H23.9417L28.6483 36.6668H32.3317L27.6267 26.6668H33.3333C33.7754 26.6668 34.1993 26.4912 34.5118 26.1787C34.8244 25.8661 35 25.4422 35 25.0002V6.66683C35 6.2248 34.8244 5.80088 34.5118 5.48832C34.1993 5.17576 33.7754 5.00016 33.3333 5.00016H16.6667V8.3335Z" fill="#81859E"/>
</svg>
