<svg width="41" height="45" viewBox="0 0 41 45" fill="none" xmlns="http://www.w3.org/2000/svg">
<mask id="mask0_95_86" style="mask-type:luminance" maskUnits="userSpaceOnUse" x="2" y="3" width="37" height="39">
<path d="M18.625 24.375L27.5125 10.3125C28.0562 10.6312 28.5812 10.9687 29.0687 11.3437L33.7938 9.44998C34.0938 9.33748 34.6 9.39373 34.75 9.69373L38.6313 16.4062C38.8188 16.725 38.7438 17.25 38.5 17.475L34.4313 20.625C34.525 21.2437 34.5625 21.8625 34.5625 22.5L18.625 24.375Z" fill="white"/>
<path d="M17.9387 21.8137L34.5609 22.4793C34.5567 23.1095 34.527 23.733 34.4459 24.3426L38.4485 27.4877C38.6959 27.6913 38.9003 28.1578 38.7155 28.4377L34.8429 35.1553C34.6606 35.477 34.1685 35.6746 33.8517 35.576L29.0894 33.6273C28.6004 34.0179 28.0833 34.3597 27.5312 34.6785L17.9387 21.8137Z" fill="white"/>
<path d="M19.8137 19.9387L27.5484 34.6668C27.0005 34.9783 26.4457 35.2642 25.8772 35.4989L25.1547 40.5378C25.1022 40.8538 24.8003 41.2641 24.4655 41.244L16.7117 41.249C16.3419 41.252 15.9247 40.9246 15.8517 40.601L15.1581 35.5023C14.5754 35.2742 14.0208 34.9973 13.4687 34.6785L19.8137 19.9387Z" fill="white"/>
<path d="M22.375 20.625L13.4875 34.6875C12.9438 34.3688 12.4188 34.0313 11.9313 33.6563L7.20625 35.55C6.90625 35.6625 6.4 35.6063 6.25 35.3063L2.36875 28.5938C2.18125 28.275 2.25625 27.75 2.5 27.525L6.56875 24.375C6.475 23.7563 6.4375 23.1375 6.4375 22.5L22.375 20.625Z" fill="white"/>
<path d="M23.0613 23.1863L6.43909 22.5207C6.44326 21.8905 6.47305 21.267 6.55406 20.6574L2.55152 17.5123C2.30409 17.3087 2.09968 16.8422 2.28449 16.5623L6.15706 9.84474C6.33936 9.52299 6.83152 9.32544 7.14825 9.42403L11.9106 11.3727C12.3996 10.9821 12.9167 10.6403 13.4688 10.3215L23.0613 23.1863Z" fill="white"/>
<path d="M21.1863 25.0613L13.4516 10.3332C13.9995 10.0217 14.5543 9.73578 15.1228 9.50109L15.8453 4.46225C15.8978 4.14619 16.1997 3.73589 16.5345 3.75599L24.2883 3.75097C24.6581 3.74797 25.0753 4.07542 25.1483 4.39902L25.8419 9.49766C26.4246 9.72584 26.9792 10.0027 27.5313 10.3215L21.1863 25.0613Z" fill="white"/>
<path d="M20.5 29.0625C24.1244 29.0625 27.0625 26.1244 27.0625 22.5C27.0625 18.8756 24.1244 15.9375 20.5 15.9375C16.8756 15.9375 13.9375 18.8756 13.9375 22.5C13.9375 26.1244 16.8756 29.0625 20.5 29.0625Z" fill="black"/>
</mask>
<g mask="url(#mask0_95_86)">
<path d="M43 0H-2V45H43V0Z" fill="#81859E"/>
</g>
</svg>
