<svg width="45" height="45" viewBox="0 0 45 45" fill="none" xmlns="http://www.w3.org/2000/svg">
<path fill-rule="evenodd" clip-rule="evenodd" d="M31.2563 24.6188C33.8251 26.3625 35.6251 28.725 35.6251 31.875V37.5H41.2501C42.2813 37.5 43.1251 36.6563 43.1251 35.625V31.875C43.1251 27.7875 36.4313 25.3688 31.2563 24.6188Z" fill="#81859E"/>
<path d="M16.875 22.5C21.0171 22.5 24.375 19.1421 24.375 15C24.375 10.8579 21.0171 7.5 16.875 7.5C12.7329 7.5 9.375 10.8579 9.375 15C9.375 19.1421 12.7329 22.5 16.875 22.5Z" fill="#81859E"/>
<path fill-rule="evenodd" clip-rule="evenodd" d="M28.125 22.5C32.2687 22.5 35.625 19.1438 35.625 15C35.625 10.8562 32.2687 7.5 28.125 7.5C27.2437 7.5 26.4188 7.6875 25.6313 7.95C27.2447 9.94541 28.1249 12.4339 28.1249 15C28.1249 17.5661 27.2447 20.0546 25.6313 22.05C26.4188 22.3125 27.2437 22.5 28.125 22.5ZM16.875 24.375C11.8687 24.375 1.875 26.8875 1.875 31.875V35.625C1.875 36.6562 2.71875 37.5 3.75 37.5H30C31.0312 37.5 31.875 36.6562 31.875 35.625V31.875C31.875 26.8875 21.8813 24.375 16.875 24.375Z" fill="#81859E"/>
</svg>
