<svg width="35" height="35" viewBox="0 0 35 35" fill="none" xmlns="http://www.w3.org/2000/svg">
<path d="M17.4999 35.0023C27.0581 35.0023 35.0025 27.0746 35.0025 17.4997C35.0025 7.94155 27.0405 -0.00292969 17.4824 -0.00292969C7.90812 -0.00292969 -0.00195312 7.94155 -0.00195312 17.4997C-0.00195312 27.0746 7.92496 35.0023 17.4999 35.0023ZM12.5587 27.0746C10.6712 27.0746 9.71066 26.1141 9.71066 24.1754V10.1717C9.71066 8.24978 10.6712 7.27237 12.5587 7.27237H16.6938V14.1875C16.6938 15.3713 17.2605 15.9204 18.4444 15.9204H25.2394V24.1739C25.2394 26.0958 24.2957 27.0739 22.3914 27.0739L12.5587 27.0746ZM18.582 14.5308C18.2555 14.5308 18.0842 14.3595 18.0842 14.033V7.37561C18.4612 7.42686 18.8559 7.70141 19.2849 8.14802L24.3645 13.3301C24.8111 13.7767 25.0849 14.1538 25.1369 14.5308H18.582Z" fill="#81859E"/>
</svg>
