<svg width="29" height="33" viewBox="0 0 29 33" fill="none" xmlns="http://www.w3.org/2000/svg">
<path d="M22.1689 32.2469C22.0226 32.4987 21.7874 32.6851 21.515 32.7651C21.2426 32.845 20.9554 32.812 20.7165 32.6732L0.900626 21.1622C0.66174 21.0234 0.490754 20.7903 0.425284 20.5141C0.359814 20.2379 0.405222 19.9412 0.55152 19.6894C0.697818 19.4375 0.933022 19.2511 1.20539 19.1711C1.47776 19.0912 1.76497 19.1242 2.00386 19.263L21.8198 30.774C22.0586 30.9128 22.2296 31.1459 22.2951 31.4221C22.3606 31.6983 22.3152 31.995 22.1689 32.2469ZM26.9868 19.8053L20.6333 16.1146L27.4556 8.44263C27.8899 7.95433 28.2167 7.37742 28.4121 6.75413C28.6074 6.13085 28.6664 5.47696 28.5846 4.84034C28.5029 4.20372 28.2825 3.60048 27.9396 3.07476C27.5967 2.54905 27.14 2.11418 26.6029 1.80198L24.8015 0.755519C24.2642 0.443619 23.6602 0.262326 23.0337 0.224908C22.4072 0.18749 21.774 0.294895 21.1805 0.539261C20.5869 0.783626 20.0481 1.15877 19.6035 1.63723C19.1588 2.11569 18.8196 2.68535 18.6105 3.30453L15.3258 13.0315L8.97237 9.34073C8.49459 9.06319 7.92015 8.99711 7.37542 9.15703C6.83069 9.31695 6.36028 9.68976 6.06769 10.1935L3.3096 14.9414C3.01701 15.4451 2.92619 16.0384 3.05713 16.5908C3.18807 17.1432 3.53004 17.6095 4.00782 17.887L22.0223 28.3516C22.5 28.6292 23.0745 28.6952 23.6192 28.5353C24.1639 28.3754 24.6343 28.0026 24.9269 27.4989L27.685 22.7509C27.9776 22.2473 28.0684 21.6539 27.9375 21.1015C27.8066 20.5491 27.4646 20.0828 26.9868 19.8053Z" fill="#81859E"/>
</svg>
