<svg width="95" height="95" viewBox="0 0 95 95" fill="none" xmlns="http://www.w3.org/2000/svg">
<g filter="url(#filter0_d_94_54)">
<circle cx="45.5" cy="45.5" r="37.5" fill="url(#paint0_linear_94_54)"/>
<circle cx="45.5" cy="45.5" r="36" stroke="#97A7E7" stroke-width="3"/>
</g>
<g clip-path="url(#clip0_94_54)">
<path d="M45.6653 45.5C51.1481 45.5 55.5917 41.0564 55.5917 35.5736C55.5917 30.0907 51.1481 25.6471 45.6653 25.6471C40.1824 25.6471 35.7388 30.0907 35.7388 35.5736C35.7388 41.0564 40.1824 45.5 45.6653 45.5ZM53.0946 48.0282L49.3877 62.8714L46.9061 52.3245L49.3877 47.9817H41.9428L44.4245 52.3245L41.9428 62.8714L38.2359 48.0282C32.7066 48.2919 28.2939 52.8131 28.2939 58.4044V61.6306C28.2939 63.6856 29.9613 65.353 32.0164 65.353H59.3142C61.3693 65.353 63.0366 63.6856 63.0366 61.6306V58.4044C63.0366 52.8131 58.624 48.2919 53.0946 48.0282Z" fill="#182C5E"/>
</g>
<defs>
<filter id="filter0_d_94_54" x="0" y="0" width="95" height="95" filterUnits="userSpaceOnUse" color-interpolation-filters="sRGB">
<feFlood flood-opacity="0" result="BackgroundImageFix"/>
<feColorMatrix in="SourceAlpha" type="matrix" values="0 0 0 0 0 0 0 0 0 0 0 0 0 0 0 0 0 0 127 0" result="hardAlpha"/>
<feMorphology radius="2" operator="dilate" in="SourceAlpha" result="effect1_dropShadow_94_54"/>
<feOffset dx="2" dy="2"/>
<feGaussianBlur stdDeviation="4"/>
<feComposite in2="hardAlpha" operator="out"/>
<feColorMatrix type="matrix" values="0 0 0 0 0.592157 0 0 0 0 0.654902 0 0 0 0 0.905882 0 0 0 0.35 0"/>
<feBlend mode="normal" in2="BackgroundImageFix" result="effect1_dropShadow_94_54"/>
<feBlend mode="normal" in="SourceGraphic" in2="effect1_dropShadow_94_54" result="shape"/>
</filter>
<linearGradient id="paint0_linear_94_54" x1="45.5" y1="8" x2="45.5" y2="83" gradientUnits="userSpaceOnUse">
<stop stop-color="#EEF3FF"/>
<stop offset="1" stop-color="#D7E3FF"/>
</linearGradient>
<clipPath id="clip0_94_54">
<rect width="34.7426" height="39.7059" fill="white" transform="translate(28.2939 25.6471)"/>
</clipPath>
</defs>
</svg>
